<mxfile host="app.diagrams.net" modified="2023-03-31T14:02:44.121Z" agent="Mozilla/5.0 (Macintosh; Intel Mac OS X 10_15_7) AppleWebKit/605.1.15 (KHTML, like Gecko) Version/16.3 Safari/605.1.15" etag="TarfRP4TV2q3g6kl6w_j" version="21.1.2">
  <diagram name="Seite-1" id="Ws_r_JiINPvYQxMr0WWU">
    <mxGraphModel dx="1646" dy="473" grid="1" gridSize="10" guides="1" tooltips="1" connect="1" arrows="1" fold="1" page="1" pageScale="1" pageWidth="827" pageHeight="1169" math="0" shadow="0">
      <root>
        <mxCell id="0" />
        <mxCell id="1" parent="0" />
        <mxCell id="Gg_ImLg8O2TvkO8edx3b-30" value="" style="rounded=0;whiteSpace=wrap;html=1;fillColor=none;strokeColor=#FF0080;" parent="1" vertex="1">
          <mxGeometry x="610" y="280" width="380" height="260" as="geometry" />
        </mxCell>
        <mxCell id="Gg_ImLg8O2TvkO8edx3b-32" value="" style="rounded=0;whiteSpace=wrap;html=1;fillColor=none;strokeColor=#FF0080;" parent="1" vertex="1">
          <mxGeometry x="40" y="90" width="720" height="480" as="geometry" />
        </mxCell>
        <mxCell id="Gg_ImLg8O2TvkO8edx3b-5" style="edgeStyle=orthogonalEdgeStyle;rounded=0;orthogonalLoop=1;jettySize=auto;html=1;entryX=0;entryY=0.5;entryDx=0;entryDy=0;" parent="1" source="Gg_ImLg8O2TvkO8edx3b-1" target="Gg_ImLg8O2TvkO8edx3b-2" edge="1">
          <mxGeometry relative="1" as="geometry">
            <Array as="points">
              <mxPoint x="510" y="340" />
            </Array>
          </mxGeometry>
        </mxCell>
        <mxCell id="Gg_ImLg8O2TvkO8edx3b-6" style="edgeStyle=orthogonalEdgeStyle;rounded=0;orthogonalLoop=1;jettySize=auto;html=1;" parent="1" source="Gg_ImLg8O2TvkO8edx3b-1" target="Gg_ImLg8O2TvkO8edx3b-3" edge="1">
          <mxGeometry relative="1" as="geometry" />
        </mxCell>
        <mxCell id="Gg_ImLg8O2TvkO8edx3b-7" style="edgeStyle=orthogonalEdgeStyle;rounded=0;orthogonalLoop=1;jettySize=auto;html=1;" parent="1" source="Gg_ImLg8O2TvkO8edx3b-1" target="Gg_ImLg8O2TvkO8edx3b-4" edge="1">
          <mxGeometry relative="1" as="geometry">
            <Array as="points">
              <mxPoint x="510" y="490" />
            </Array>
          </mxGeometry>
        </mxCell>
        <mxCell id="Gg_ImLg8O2TvkO8edx3b-27" style="rounded=0;orthogonalLoop=1;jettySize=auto;html=1;fillColor=#fff2cc;strokeColor=#d6b656;" parent="1" source="Gg_ImLg8O2TvkO8edx3b-1" target="Gg_ImLg8O2TvkO8edx3b-9" edge="1">
          <mxGeometry relative="1" as="geometry" />
        </mxCell>
        <mxCell id="Gg_ImLg8O2TvkO8edx3b-1" value="gateway" style="rounded=1;whiteSpace=wrap;html=1;" parent="1" vertex="1">
          <mxGeometry x="420" y="380" width="120" height="60" as="geometry" />
        </mxCell>
        <mxCell id="Gg_ImLg8O2TvkO8edx3b-21" style="edgeStyle=orthogonalEdgeStyle;rounded=0;orthogonalLoop=1;jettySize=auto;html=1;entryX=0;entryY=0.5;entryDx=0;entryDy=0;" parent="1" source="Gg_ImLg8O2TvkO8edx3b-2" target="Gg_ImLg8O2TvkO8edx3b-20" edge="1">
          <mxGeometry relative="1" as="geometry" />
        </mxCell>
        <mxCell id="Gg_ImLg8O2TvkO8edx3b-24" style="rounded=0;orthogonalLoop=1;jettySize=auto;html=1;entryX=1;entryY=0.5;entryDx=0;entryDy=0;fillColor=#fff2cc;strokeColor=#d6b656;" parent="1" source="Gg_ImLg8O2TvkO8edx3b-2" target="Gg_ImLg8O2TvkO8edx3b-9" edge="1">
          <mxGeometry relative="1" as="geometry" />
        </mxCell>
        <mxCell id="Gg_ImLg8O2TvkO8edx3b-2" value="app" style="rounded=1;whiteSpace=wrap;html=1;" parent="1" vertex="1">
          <mxGeometry x="630" y="310" width="120" height="60" as="geometry" />
        </mxCell>
        <mxCell id="Gg_ImLg8O2TvkO8edx3b-22" style="edgeStyle=orthogonalEdgeStyle;rounded=0;orthogonalLoop=1;jettySize=auto;html=1;" parent="1" source="Gg_ImLg8O2TvkO8edx3b-3" target="Gg_ImLg8O2TvkO8edx3b-20" edge="1">
          <mxGeometry relative="1" as="geometry" />
        </mxCell>
        <mxCell id="Gg_ImLg8O2TvkO8edx3b-25" style="rounded=0;orthogonalLoop=1;jettySize=auto;html=1;fillColor=#fff2cc;strokeColor=#d6b656;" parent="1" source="Gg_ImLg8O2TvkO8edx3b-3" target="Gg_ImLg8O2TvkO8edx3b-9" edge="1">
          <mxGeometry relative="1" as="geometry" />
        </mxCell>
        <mxCell id="Gg_ImLg8O2TvkO8edx3b-3" value="app" style="rounded=1;whiteSpace=wrap;html=1;" parent="1" vertex="1">
          <mxGeometry x="630" y="380" width="120" height="60" as="geometry" />
        </mxCell>
        <mxCell id="Gg_ImLg8O2TvkO8edx3b-23" style="edgeStyle=orthogonalEdgeStyle;rounded=0;orthogonalLoop=1;jettySize=auto;html=1;entryX=0;entryY=0.5;entryDx=0;entryDy=0;" parent="1" source="Gg_ImLg8O2TvkO8edx3b-4" target="Gg_ImLg8O2TvkO8edx3b-20" edge="1">
          <mxGeometry relative="1" as="geometry" />
        </mxCell>
        <mxCell id="Gg_ImLg8O2TvkO8edx3b-26" style="rounded=0;orthogonalLoop=1;jettySize=auto;html=1;fillColor=#fff2cc;strokeColor=#d6b656;" parent="1" source="Gg_ImLg8O2TvkO8edx3b-4" target="Gg_ImLg8O2TvkO8edx3b-9" edge="1">
          <mxGeometry relative="1" as="geometry" />
        </mxCell>
        <mxCell id="Gg_ImLg8O2TvkO8edx3b-4" value="App 2" style="rounded=1;whiteSpace=wrap;html=1;" parent="1" vertex="1">
          <mxGeometry x="630" y="460" width="120" height="60" as="geometry" />
        </mxCell>
        <mxCell id="Gg_ImLg8O2TvkO8edx3b-12" style="edgeStyle=orthogonalEdgeStyle;rounded=0;orthogonalLoop=1;jettySize=auto;html=1;" parent="1" source="Gg_ImLg8O2TvkO8edx3b-9" target="Gg_ImLg8O2TvkO8edx3b-11" edge="1">
          <mxGeometry relative="1" as="geometry" />
        </mxCell>
        <mxCell id="Gg_ImLg8O2TvkO8edx3b-19" style="edgeStyle=orthogonalEdgeStyle;rounded=0;orthogonalLoop=1;jettySize=auto;html=1;" parent="1" source="Gg_ImLg8O2TvkO8edx3b-9" target="Gg_ImLg8O2TvkO8edx3b-13" edge="1">
          <mxGeometry relative="1" as="geometry" />
        </mxCell>
        <mxCell id="Gg_ImLg8O2TvkO8edx3b-9" value="Consul-UI" style="rounded=1;whiteSpace=wrap;html=1;" parent="1" vertex="1">
          <mxGeometry x="130" y="240" width="120" height="60" as="geometry" />
        </mxCell>
        <mxCell id="Gg_ImLg8O2TvkO8edx3b-11" value="Worker-1" style="rounded=1;whiteSpace=wrap;html=1;" parent="1" vertex="1">
          <mxGeometry x="50" y="110" width="120" height="60" as="geometry" />
        </mxCell>
        <mxCell id="Gg_ImLg8O2TvkO8edx3b-13" value="Worker-n" style="rounded=1;whiteSpace=wrap;html=1;" parent="1" vertex="1">
          <mxGeometry x="220" y="110" width="120" height="60" as="geometry" />
        </mxCell>
        <mxCell id="Gg_ImLg8O2TvkO8edx3b-15" style="edgeStyle=orthogonalEdgeStyle;rounded=0;orthogonalLoop=1;jettySize=auto;html=1;entryX=0;entryY=0.75;entryDx=0;entryDy=0;" parent="1" source="Gg_ImLg8O2TvkO8edx3b-14" target="Gg_ImLg8O2TvkO8edx3b-1" edge="1">
          <mxGeometry relative="1" as="geometry" />
        </mxCell>
        <mxCell id="Gg_ImLg8O2TvkO8edx3b-16" value="localhost:8888/demo/ping" style="edgeLabel;html=1;align=center;verticalAlign=middle;resizable=0;points=[];" parent="Gg_ImLg8O2TvkO8edx3b-15" vertex="1" connectable="0">
          <mxGeometry x="-0.749" y="3" relative="1" as="geometry">
            <mxPoint x="17" y="-7" as="offset" />
          </mxGeometry>
        </mxCell>
        <mxCell id="Gg_ImLg8O2TvkO8edx3b-17" style="edgeStyle=orthogonalEdgeStyle;rounded=0;orthogonalLoop=1;jettySize=auto;html=1;entryX=0;entryY=0.5;entryDx=0;entryDy=0;exitX=0.5;exitY=0;exitDx=0;exitDy=0;exitPerimeter=0;" parent="1" source="Gg_ImLg8O2TvkO8edx3b-14" target="Gg_ImLg8O2TvkO8edx3b-9" edge="1">
          <mxGeometry relative="1" as="geometry">
            <Array as="points">
              <mxPoint x="-105" y="270" />
            </Array>
          </mxGeometry>
        </mxCell>
        <mxCell id="Gg_ImLg8O2TvkO8edx3b-18" value="localhost:8501" style="edgeLabel;html=1;align=center;verticalAlign=middle;resizable=0;points=[];" parent="Gg_ImLg8O2TvkO8edx3b-17" vertex="1" connectable="0">
          <mxGeometry x="0.3143" y="-2" relative="1" as="geometry">
            <mxPoint x="16" y="-12" as="offset" />
          </mxGeometry>
        </mxCell>
        <mxCell id="Gg_ImLg8O2TvkO8edx3b-14" value="Actor" style="shape=umlActor;verticalLabelPosition=bottom;verticalAlign=top;html=1;outlineConnect=0;" parent="1" vertex="1">
          <mxGeometry x="-120" y="400" width="30" height="60" as="geometry" />
        </mxCell>
        <mxCell id="Gg_ImLg8O2TvkO8edx3b-20" value="DB" style="rounded=1;whiteSpace=wrap;html=1;" parent="1" vertex="1">
          <mxGeometry x="840" y="380" width="120" height="60" as="geometry" />
        </mxCell>
        <mxCell id="Gg_ImLg8O2TvkO8edx3b-31" value="network-1" style="text;html=1;strokeColor=none;fillColor=none;align=center;verticalAlign=middle;whiteSpace=wrap;rounded=0;" parent="1" vertex="1">
          <mxGeometry x="920" y="280" width="60" height="30" as="geometry" />
        </mxCell>
        <mxCell id="Gg_ImLg8O2TvkO8edx3b-33" value="network-2" style="text;html=1;strokeColor=none;fillColor=none;align=center;verticalAlign=middle;whiteSpace=wrap;rounded=0;" parent="1" vertex="1">
          <mxGeometry x="690" y="90" width="60" height="30" as="geometry" />
        </mxCell>
      </root>
    </mxGraphModel>
  </diagram>
</mxfile>
